<?xml version="1.0" standalone="no"?>
<!DOCTYPE svg PUBLIC "-//W3C//DTD SVG 20010904//EN"
 "http://www.w3.org/TR/2001/REC-SVG-20010904/DTD/svg10.dtd">
<svg version="1.0" xmlns="http://www.w3.org/2000/svg"
 width="20pt" height="20pt" viewBox="0 0 20 20"
 preserveAspectRatio="xMidYMid meet">

<g transform="translate(0.000000,1200.000000) scale(0.100000,-0.100000)"
fill="#000000" stroke="none">
<path d="M23436 9169 c-912 -94 -1711 -545 -2258 -1276 -567 -758 -764 -1753
-529 -2679 78 -308 216 -636 372 -881 34 -54 62 -103 62 -109 0 -6 -123 -147
-274 -313 -151 -167 -274 -306 -274 -311 0 -11 1128 -1031 1137 -1028 3 2 37
37 75 79 37 41 162 179 276 306 l208 231 107 -53 c767 -379 1682 -426 2497
-129 755 276 1388 842 1750 1564 157 313 256 632 312 1005 26 173 26 680 0
845 -114 733 -410 1330 -902 1824 -254 255 -504 436 -818 593 -329 164 -622
256 -997 314 -154 24 -589 34 -744 18z m449 -1509 c114 -11 255 -36 267 -48 4
-4 -142 -172 -325 -373 -183 -201 -629 -693 -991 -1093 -363 -400 -663 -723
-667 -719 -11 12 -56 169 -76 271 -25 127 -25 459 1 597 124 666 636 1194
1293 1335 174 37 324 46 498 30z m688 -224 c698 -412 1003 -1234 740 -1989
-193 -555 -658 -961 -1246 -1089 -140 -30 -490 -33 -639 -5 -54 11 -100 23
-104 28 -3 5 115 143 263 306 147 163 406 450 575 637 l308 341 0 913 c0 501
3 912 6 912 3 0 47 -24 97 -54z"/>
<path d="M3150 8365 l0 -695 1472 -2 1472 -3 -1512 -1670 -1512 -1670 0 -692
0 -693 2595 0 2595 0 -2 693 -3 692 -1549 5 -1548 5 1510 1665 1511 1665 -2
695 -2 695 -2512 3 -2513 2 0 -695z"/>
<path d="M9000 5998 l0 -3058 2420 0 2420 0 -2 692 -3 693 -1722 3 -1723 2 0
515 0 515 1535 0 1535 0 0 640 0 640 -1535 0 -1535 0 0 513 0 512 1725 -3
1725 -3 0 690 0 689 -112 6 c-62 4 -1151 8 -2421 9 l-2307 2 0 -3057z"/>
<path d="M14717 7058 c-4 -1102 -7 -2479 -7 -3060 l0 -1058 695 0 695 0 0 880
0 880 681 -2 681 -3 401 -877 401 -878 764 0 c607 0 763 3 759 12 -3 7 -211
461 -461 1008 -251 547 -459 1005 -462 1016 -4 17 3 26 41 48 62 37 202 143
288 219 220 195 431 500 547 791 40 103 85 264 112 401 30 158 38 595 14 783
-110 861 -729 1562 -1564 1772 -268 67 -160 64 -1953 67 l-1626 4 -6 -2003z
m3153 601 c169 -21 298 -85 420 -208 88 -89 150 -197 180 -317 25 -97 28 -389
6 -496 -51 -237 -236 -438 -481 -520 l-70 -23 -907 -3 -908 -3 0 791 0 790
838 0 c528 0 869 -4 922 -11z"/>
</g>
</svg>
